<svg width="321" height="143" viewBox="0 0 321 143" fill="none" xmlns="http://www.w3.org/2000/svg">
<path d="M103.8 86.2V109.8H88.6V139H57.8L57.6 109.8H0.6V88.8L39 0.399996L65.8 10.4L33.2 86.2H58L61.4 54.2H88.6V86.2H103.8ZM166.686 0.999989C183.219 0.999989 195.819 7.06666 204.486 19.2C213.286 31.3333 217.686 48.8 217.686 71.6C217.686 94.2667 213.286 111.733 204.486 124C195.819 136.267 183.219 142.4 166.686 142.4C150.153 142.4 137.486 136.267 128.686 124C120.019 111.733 115.686 94.2667 115.686 71.6C115.686 48.8 120.019 31.3333 128.686 19.2C137.486 7.06666 150.153 0.999989 166.686 0.999989ZM166.686 24.4C162.153 24.4 158.553 25.8667 155.886 28.8C153.219 31.7333 151.219 36.6 149.886 43.4C148.686 50.2 148.086 59.6 148.086 71.6C148.086 83.6 148.686 93.0667 149.886 100C151.219 106.8 153.219 111.667 155.886 114.6C158.553 117.533 162.153 119 166.686 119C171.219 119 174.819 117.6 177.486 114.8C180.153 111.867 182.086 107 183.286 100.2C184.619 93.2667 185.286 83.7333 185.286 71.6C185.286 59.4667 184.619 50 183.286 43.2C182.086 36.2667 180.153 31.4 177.486 28.6C174.819 25.8 171.219 24.4 166.686 24.4ZM270.925 0.999989C280.392 0.999989 288.458 2.53332 295.125 5.59999C301.925 8.66666 307.058 12.8 310.525 18C314.125 23.2 315.925 29 315.925 35.4C315.925 43.5333 313.592 50.3333 308.925 55.8C304.392 61.2667 297.925 65.2 289.525 67.6C298.592 68.5333 305.992 71.8 311.725 77.4C317.458 82.8667 320.325 90.6667 320.325 100.8C320.325 108.4 318.325 115.4 314.325 121.8C310.325 128.067 304.392 133.067 296.525 136.8C288.792 140.533 279.525 142.4 268.725 142.4C248.992 142.4 233.525 135.6 222.325 122L239.325 105.4C243.858 109.933 248.258 113.267 252.525 115.4C256.925 117.4 261.725 118.4 266.925 118.4C273.192 118.4 278.258 116.667 282.125 113.2C285.992 109.733 287.925 104.933 287.925 98.8C287.925 91.8667 286.058 86.9333 282.325 84C278.725 80.9333 273.258 79.4 265.925 79.4H254.725L258.125 57.6H265.925C271.925 57.6 276.658 56.0667 280.125 53C283.592 49.9333 285.325 45.6 285.325 40C285.325 35.0667 283.725 31.2667 280.525 28.6C277.325 25.8 272.925 24.4 267.325 24.4C257.858 24.4 249.058 28.3333 240.925 36.2L225.325 19.2C238.125 7.06666 253.325 0.999989 270.925 0.999989Z" fill="#B82623"/>
</svg>
