<svg width="501" height="214" viewBox="0 0 501 214" fill="none" xmlns="http://www.w3.org/2000/svg">
<path d="M155.2 128.8V164.2H132.4V208H86.2L85.9 164.2H0.4V132.7L58 0.0999944L98.2 15.1L49.3 128.8H86.5L91.6 80.8H132.4V128.8H155.2ZM249.529 0.999983C274.329 0.999983 293.229 10.1 306.229 28.3C319.429 46.5 326.029 72.7 326.029 106.9C326.029 140.9 319.429 167.1 306.229 185.5C293.229 203.9 274.329 213.1 249.529 213.1C224.729 213.1 205.729 203.9 192.529 185.5C179.529 167.1 173.029 140.9 173.029 106.9C173.029 72.7 179.529 46.5 192.529 28.3C205.729 10.1 224.729 0.999983 249.529 0.999983ZM249.529 36.1C242.729 36.1 237.329 38.3 233.329 42.7C229.329 47.1 226.329 54.4 224.329 64.6C222.529 74.8 221.629 88.9 221.629 106.9C221.629 124.9 222.529 139.1 224.329 149.5C226.329 159.7 229.329 167 233.329 171.4C237.329 175.8 242.729 178 249.529 178C256.329 178 261.729 175.9 265.729 171.7C269.729 167.3 272.629 160 274.429 149.8C276.429 139.4 277.429 125.1 277.429 106.9C277.429 88.7 276.429 74.5 274.429 64.3C272.629 53.9 269.729 46.6 265.729 42.4C261.729 38.2 256.329 36.1 249.529 36.1ZM500.317 128.8V164.2H477.517V208H431.317L431.017 164.2H345.517V132.7L403.117 0.0999944L443.317 15.1L394.417 128.8H431.617L436.717 80.8H477.517V128.8H500.317Z" fill="#B82623"/>
</svg>
